<svg version="1" xmlns="http://www.w3.org/2000/svg" width="1365.333" height="1365.333" viewBox="0 0 1024.000000 1024.000000"><path d="M27 368.3c0 1.2.9 10.1 2 19.7 8.4 73.8 30.2 140.8 60.9 187.8 31.7 48.3 72.6 78.4 121.3 89.2 13.2 3 21.4 4 40.8 5 47.9 2.5 90.5-5.3 126-23.2 34-17.1 59.7-42.9 76.5-76.6 5-10 11.5-27.5 11.5-30.8 0-.8.6-1.4 1.3-1.4.6 0 17 .7 36.2 1.5 19.3.8 37.8 1.5 41.1 1.5h6.2l3.6 10.7c23.2 67.6 74.3 107.4 149.6 116.2 31.5 3.7 71.1 1.6 102.8-5.5 35.1-7.8 69.8-24.3 96.7-45.9 32.8-26.2 61.5-66.3 80-111.5 14.2-34.5 25.2-80.2 29-119.9 1.8-18.8 1.8-18.1.1-18.1-.8 0-13.6 2.7-28.3 6-40.2 9.1-146.8 33.3-180.8 41-48.3 11.1-122.1 27.9-133.5 30.5-5.8 1.3-20.4 4.6-32.5 7.4-12.1 2.7-35.8 8.2-52.8 12.1l-30.7 7h-43.1c-42.9 0-43.2 0-53.8-2.6-5.8-1.4-21.6-5.2-35.1-8.4-29.1-7-134.7-32.3-189.5-45.5C108.1 384.6 29.9 366 28.1 366c-.6 0-1.1 1-1.1 2.3zM162 444c94.4 18.5 97.3 19.1 100.2 20.6 3.4 1.7 4.8 4.3 4.8 8.4 0 4.1-64.3 120.5-67.9 122.8-3.9 2.6-8.2 1.9-16.3-2.7-21.2-12.1-43-33.4-58.8-57.6-7.4-11.3-20.2-37.9-25-52-4.9-14.2-11-37.7-11-42.2 0-3.7 4-9 7.3-9.5 2.7-.4-5.8-2 66.7 12.2zm549.7 39.4c5.4 4.7 5 5.8-21.4 63.9-13.2 29-24.8 53.6-25.8 54.7-4.4 4.9-11.4 3.1-24-6.2-14.9-11.1-26.7-26.1-34.9-44.7-4-9-8.5-25.2-9.2-33.2-.7-6.5-.6-6.9 2.2-9.6 2.6-2.5 6.2-3.6 31.4-9.7 15.7-3.8 38.2-9.2 50-12.1 25-6.2 27.8-6.5 31.7-3.1zM733.5 717.4c-.5.3-2.3.7-3.8 1-1.5.4-6.9 4.4-11.9 8.9-18.7 16.9-37.6 30.7-54.9 40-26.6 14.3-59.6 25.5-92.4 31.2-37.4 6.5-84.1 7.2-129.1 1.9-16.1-1.9-19.6-1.2-25.9 5-8 8-7.9 20 .2 27.7 5 4.8 7.5 5.5 22.8 7.3 36 4.2 86.7 4.7 115.5 1.1 60.4-7.4 110.7-25.3 153-54.3 20.6-14.1 43.3-34.1 47.1-41.4 4.7-9.2.5-21.3-9-26.3-3-1.5-9.8-2.7-11.6-2.1z"/></svg>