<svg version="1" xmlns="http://www.w3.org/2000/svg" width="1365.333" height="1365.333" viewBox="0 0 1024.000000 1024.000000"><path d="M27 368.4c0 1.7.9 11 2 20.6 9.3 81 34.4 152.4 71.1 201.7 9.7 13 33.9 37.1 45.9 45.5 24.6 17.4 54 28.6 84.5 32.2 62.5 7.5 122-3.6 164-30.6 22.4-14.4 43-36.4 56.6-60.5 5.4-9.7 12.2-26.3 14.1-34.3l1.2-5.2 6.5.6c3.7.3 22.7 1.1 42.3 1.7l35.7 1.2 4.1 12.1c22.8 66.5 73 105.1 149.4 114.8 13 1.7 54.7 1.6 69.1-.1 81.3-9.6 140-45.2 182.8-110.7 29.5-45.1 49.6-106.4 56.2-171.1.9-8.9 1.5-17 1.3-18.1-.3-1.8-1.4-1.6-21.3 2.9-11.5 2.7-25.3 5.8-30.5 6.9-5.2 1.1-28.4 6.3-51.5 11.5-23.1 5.3-62.7 14.3-88 20.1-25.3 5.8-52.7 12-61 13.9-8.2 1.9-31 7-50.5 11.5s-40.2 9.2-46 10.5c-5.8 1.3-20.4 4.6-32.5 7.4-12.1 2.7-34.8 8-50.5 11.6l-28.6 6.5h-84.9l-146-35c-80.3-19.3-151.4-36.3-158-37.9-11.9-2.9-78.1-18.7-117.2-28L27 365.3v3.1zm86.1 66.1c6.8 1.3 42.3 8.3 78.9 15.5 36.6 7.2 67.8 13.6 69.3 14.2 3.7 1.4 5.7 4.5 5.7 8.5 0 2.5-7.2 16.4-28 53.8-15.4 27.7-30 54.2-32.5 58.7-5.5 10.1-7.4 11.8-12.9 11.8-3.3 0-6.1-1.2-13.8-5.9-42.4-25.8-73.7-73.6-88.9-135.6-3.7-15.1-3.7-16.9 0-20.6 3.7-3.6 5.9-3.7 22.2-.4zm597 47.5c2.7 1.5 5.2 6.8 4.5 9.9-.8 3.8-48.3 108.1-50.2 110.2-2.4 2.6-6.7 3.2-10.8 1.5-10.6-4.4-27.9-19.6-36.4-31.9-9.9-14.3-17.9-34.3-20.2-50.2-1.4-9-.6-12.4 3.2-14.8 1.3-.8 13.8-4.2 27.8-7.6 14-3.3 36.3-8.7 49.5-12 25-6.1 29.3-6.8 32.6-5.1zM729.7 718.4c-4.3 1.6-5 2.1-16.4 12.8-29.9 27.8-71.2 49.7-115.8 61.3-45.2 11.9-96.9 14.4-155.7 7.8-13.8-1.5-14.9-1.5-19.1.1-8.7 3.3-14.6 13-13.2 21.6.4 2.1 1.9 5.8 3.5 8.3 4.3 6.7 8.3 8.2 30 10.9 16.3 1.9 23.3 2.2 58.5 2.3 44.1 0 55.6-1 87.7-7.5 61.6-12.6 116.1-40.4 156-79.7 9.7-9.5 11.3-12.6 10.6-20.9-1.1-12.7-14.4-21.4-26.1-17z"/></svg>