<svg version="1" xmlns="http://www.w3.org/2000/svg" width="340" height="340" viewBox="0 0 255.000000 255.000000"><path d="M112.1 4.1c-14.5 2.5-40 13.7-48.6 21.1-8.8 7.6-22.1 22.3-24.3 27-5.7 11.7-4.9 36.9 2.3 68.5.4 1.9.1 2.3-1.9 2.3-3.8 0-8.2 4.3-9.6 9.5-1.7 6.2-.8 21.2 1.9 29.5 2 6.3 9.4 19.5 13.1 23.4 1 1 3.2 2.1 5 2.5 3 .6 3.3 1 5 7.7 3.4 13.4 12.1 27.1 22.9 36.2 8.1 6.9 23.7 16.9 29.7 19.1 4.5 1.7 7.8 2.1 18.5 2.1 12.9 0 13 0 20.2-3.6 27.4-13.8 44.1-31.9 49.6-53.7 1.7-6.6 2-7 5.6-8.3 2.1-.7 4.1-1.6 4.6-2.1 2.9-2.9 10.4-16.9 12.6-23.3 3-8.9 4.1-22.4 2.3-28.9-1.4-5.3-5.9-10.1-9.3-10.1h-2.5l2.4-8.8c3.5-12.7 5-31.1 3.6-46-1.4-15.2-3.2-19.4-12.7-28.7-4.4-4.2-7.7-8.4-8.4-10.5-1.5-4.9-6.4-10.5-11.7-13.6-4.9-2.9-6.2-2.7-4.5.4 2.6 4.9 1.2 5.2-5.1 1.1-8.3-5.3-16.9-9.4-24.3-11.4-7.2-1.9-28.8-2.8-36.4-1.4zM89.9 57.4c1.6.9 6.8 5.2 11.6 9.6 6.9 6.4 9.7 8.3 14.1 9.6 5.7 1.6 9 1.5 8.7-.3-.1-.7 1.1-.6 3.5.3 5 1.8 11.9 1.7 17.5-.2 6.4-2.2 7.7-4 3.5-5l-3.3-.7 5-1.6c6-2 12.7-5.9 12-7.1-.2-.4-1.8-1-3.5-1.3-7.2-1.5-.3-4.7 10-4.7 11.7 0 20.7 4.7 25.3 13.3 2 3.8 2.2 5.7 2.3 20.2.1 8.8.5 20 1.1 25 1.3 12.1 0 47-2.1 55.8-1.6 6.8-5.1 14.7-8.9 20.1-1.7 2.5-2.2 2.6-2.7 1.2-.4-1.3-1.3-.7-4 3.1-3.2 4.5-3.4 4.7-4 2.4l-.5-2.4-1.3 2.8-1.3 2.8-2.3-4.9c-1.7-3.6-3.4-5.5-6.6-7.3-4.1-2.3-4.7-2.4-18.8-1.7-13.2.7-14.4.6-13.2-.8.7-.9 3.1-1.9 5.3-2.3 7-1.1 9.5-5.7 6.1-11.3l-1.5-2.5.6 3.2c.4 1.8.4 4.2 0 5.3-.6 1.8-1.2 2-5.5 1.4-3.6-.5-5.4-.2-7.1 1-3 2-6.8 2-9.7 0-1.5-1-3.8-1.4-7-1.2l-4.7.3.1-4.9c0-4.2-.1-4.6-1.3-3-3.4 4.6-.5 10.8 5.5 11.8 2.2.3 5 1.4 6.2 2.4 2.1 1.7 2 1.8-5.7 1.1-24-2.2-30.9-.1-34.7 10.6l-1.4 4-1.2-2.7c-1.3-2.8-3-3.7-3-1.7 0 1.7-3-1-5.2-4.6-1.4-2.3-1.8-2.6-1.8-1.1 0 1.8-.1 1.8-1.9.2-2.7-2.4-6.8-12.1-8.6-20.2-3.6-15.7-2.9-50.8 1.2-65.8 1.4-5.1 1.5-7.4.6-16-2.4-21.5 2.1-29.9 18.2-34 3.3-.8 11.2.2 14.4 1.8zm-46 72.8c.5 1.3 1.2 3.4 1.6 4.8l.7 2.5-2.4-2.3c-1.3-1.2-3.2-2.2-4.2-2.2-1.5 0-1.3.6 1.3 3.5 3 3.4 3 3.5 1.5 7.2-1.8 4.3-1.5 13.6.5 15.6 1.1 1 1.2.4.6-2.9-.7-4.8 1.2-13.7 2.5-11.4.4.8 1.2 6 1.8 11.5.6 5.5 1.4 11.6 1.8 13.5l.6 3.5-3.1-3.3c-1.7-1.8-3.1-2.6-3.1-1.9 0 1.5 3.9 6.2 5.7 6.8.6.2 1.4 2.1 1.8 4.1.6 3 .4 3.8-.7 3.8-1.9 0-3.6-2-8.5-10.5-6.3-10.8-7.8-16.3-7.8-28.5 0-8.4.4-11.1 1.8-13.3 2.2-3.4 6.4-3.7 7.6-.5zm171.4 1.8c1.5 2.9 1.8 5.1 1.3 13-.6 11.7-2.2 16.9-8.1 27.4-4.5 7.8-6.8 10.6-8.8 10.6-2.1 0 .6-7.1 3.8-10.3 1.9-1.9 3.5-4.1 3.5-4.7 0-.7-.9-.1-2.1 1.4-2.5 3.2-4.3 3.4-3.5.3.3-1.2 1.1-7.2 1.7-13.2.6-6.1 1.5-11.4 1.9-11.8 1.4-1.5 3.1 8.5 2.1 12-1.1 3.9.1 4.4 1.7.8 1.6-3.5 1.5-8.4-.3-13.4-1.4-4.1-1.4-4.2 1.6-7.6 2.9-3.3 3-3.5 1-3.5-1.2 0-3 .9-4.1 2-2.3 2.3-2.4 2.1-.8-3.2 1-3.6 1.4-3.9 4.2-3.6 2.4.2 3.5 1.1 4.9 3.8zm-109.8 65.5c11.9 2 27.6 1.9 40.7-.2 9.8-1.5 10.8-1.5 13.1 0 3.6 2.4 4.2 6.1 1.7 11.3-5 10.3-21 15.9-27.4 9.5-2-2-2-2 .7-3 1.5-.6 2.7-1.3 2.7-1.6 0-.3-5.5-.5-12.2-.4-10 .1-11.8.3-9.5 1.2 3.6 1.5 3.4 3.1-.7 5.1-6.8 3.2-14 1.2-21.3-5.9-4.7-4.5-5.3-5.6-5.3-9.2 0-2.4.7-4.8 1.6-5.7 2-2.1 3-2.1 1.4-.1s0 3.9 3.3 4.1c1.2.1 6 .9 10.7 1.8 13.7 2.7 35 2.1 46.9-1.4 1.9-.5 3.7-.7 4.2-.5 1.2.8 3.9-.6 3.9-2 0-.7-.7-1.8-1.5-2.5-1.2-1-2.1-.9-4.7.3-6.2 2.9-15.2 4.1-28.8 4.1-13.1-.1-27.6-2.2-28.9-4.2-.3-.5-1.3-1.2-2.1-1.5-2.8-1.1 2.3-.7 11.5.8z"/><path d="M159 112.2c-7.7.8-16.5 3.3-17.6 4.9-.3.5-.2 1.9.1 3 .8 2.5 2 2.4 17.1-1.1 11.6-2.7 13.9-2.4 19.4 2.6 4.4 4 4.7 3.9 2.6-.9-3.2-7.6-8.9-9.8-21.6-8.5zM75.8 113.5c-2.3 1.3-6.8 8.5-6.8 11 0 .5 1.5-.5 3.3-2.2 6.5-6.2 7.7-6.3 25.5-2.1 8.6 2.1 9.3 2.1 10.9.5 1.6-1.5 1.5-1.8-.1-3.6-3.9-4.3-26.8-6.8-32.8-3.6zM82.1 126.6c-3.7 1.9-5.7 3.7-6.9 6.1l-1.7 3.5 4.6 4.3c7.3 6.9 15.7 8.3 24.4 4.1 8.1-3.9 9.8-5.8 9.1-9.3-.8-3.5-5.8-8.7-9.9-10.2-5.3-2-13.8-1.3-19.6 1.5zm4.6 4.3c-2.4 6.4 4.1 12.7 10.1 9.8 4.1-1.9 5.9-5.9 4.5-9.7l-1.2-3.1 3.2 1.8c1.8 1.1 3.9 3.1 4.7 4.7 1.4 2.6 1.4 2.8-1.7 5.6-3.4 3-8.8 5-13.8 5-4.2-.1-10.7-3.2-13.3-6.5-2-2.5-2-2.8-.5-5.1 1.6-2.5 5.8-5.3 8-5.4.8 0 .8.7 0 2.9zm7.9-1.8c.3.6 0 1.7-.7 2.5-1.8 1.7-4.4.2-3.6-2 .7-1.8 3.3-2.1 4.3-.5z"/><path d="M148.4 125.4c-3.9 1.7-8 6.1-9.3 9.9-1 2.6-.7 3 3.5 6 8.8 6.2 15.7 7.2 23.9 3.3 4.6-2.1 10.5-7.5 10.5-9.6 0-1.9-5.7-7.4-9.5-9.1-4.8-2.2-14.6-2.4-19.1-.5zm1.6 4.5c-4.8 9 8 16.2 13.6 7.6 1.4-2.1 1.5-3.2.6-6.1-1.2-4-.3-4.4 4.5-1.5 6.2 3.8 5 9.1-3 13-7 3.4-15.2 2.3-21-2.8-2.8-2.6-3-3.1-1.9-5.5.6-1.4 2.6-3.5 4.4-4.6 4.1-2.5 4.1-2.5 2.8-.1zm7.6-.8c.3.6 0 1.7-.7 2.5-1.8 1.7-4.4.2-3.6-2 .7-1.8 3.3-2.1 4.3-.5zM133.4 129.3c-.4 1.1 0 5.3.9 9.5.9 4.3 1.8 10.7 2 14.3.7 11.5 2.4 11.3 2.1-.2-.3-11.3-3.6-27-5-23.6z"/></svg>